# xmcd
#
# Track frame offsets:
#	150
#	4703
#	22482
#	39398
#	55623
#	77047
#	79131
#	94349
#	114039
#	115037
#	133924
#	150908
#	154671
#	169872
#	187894
#
# Disc length: 2726 seconds
#
# Revision: 0
# Processed by: cddbd v1.5.1PL0 Copyright (c) Steve Scherf et al.
# Submitted via: audiograbber 1.82.02
#
DISCID=ac0aa40f
DTITLE=Rednex - Farm Out
DYEAR=1900
DGENRE=Dance
TTITLE0=Intro - Fresh Pigs And More
TTITLE1=The Spirit Of The Hawk
TTITLE2=The Way I Mate
TTITLE3=The Devil Went Down To Georgia
TTITLE4=Hold Me For A While
TTITLE5=Boring
TTITLE6=Where You Gonna Go
TTITLE7=Maggie Moonshine (Extended Version)
TTITLE8=Animal In The Rain
TTITLE9=Ranger Jack
TTITLE10=Get The Truck Loaded
TTITLE11=Message From Our Sponsors
TTITLE12=Is He Alive
TTITLE13=McKenzie Brothers II (Continue)
TTITLE14=Bottleneck Bob 2000
EXTD=
EXTT0=(c) MaKueh Records
EXTT1=(c) MaKueh Records
EXTT2=(c) MaKueh Records
EXTT3=(c) MaKueh Records
EXTT4=(c) MaKueh Records
EXTT5=(c) MaKueh Records
EXTT6=(c) MaKueh Records
EXTT7=(c) MaKueh Records
EXTT8=(c) MaKueh Records
EXTT9=(c) MaKueh Records
EXTT10=(c) MaKueh Records
EXTT11=(c) MaKueh Records
EXTT12=(c) MaKueh Records
EXTT13=(c) MaKueh Records
EXTT14=(c) MaKueh Records
PLAYORDER=
